<?xml version="1.0" encoding="UTF-8"?>
<svg version="1.1" xmlns="http://www.w3.org/2000/svg" width="200" height="200">
<path d="M0 0 C1.33666217 0.5566184 2.6753541 1.108378 4.015625 1.65625 C5.42828996 2.26805471 6.83973393 2.88268573 8.25 3.5 C8.96929687 3.80808594 9.68859375 4.11617188 10.4296875 4.43359375 C15.75887666 6.75887666 15.75887666 6.75887666 18 9 C18.17488254 11.43744897 18.23177405 13.7593608 18.1953125 16.1953125 C18.1924826 16.90275604 18.18965271 17.61019958 18.18673706 18.33908081 C18.17553137 20.6012251 18.15042679 22.86297515 18.125 25.125 C18.11497067 26.65754637 18.10584474 28.19009894 18.09765625 29.72265625 C18.07559086 33.48192301 18.04105896 37.24089464 18 41 C14.65814871 42.54899141 11.29998029 44.05887924 7.9375 45.5625 C6.52307617 46.21895508 6.52307617 46.21895508 5.08007812 46.88867188 C-1.39432438 49.75365138 -5.39220879 50.76202584 -12.22241211 48.15014648 C-14.65796721 47.13700514 -17.04710867 46.05275913 -19.4375 44.9375 C-20.67790039 44.37192383 -20.67790039 44.37192383 -21.94335938 43.79492188 C-23.96606979 42.87125642 -25.98462257 41.93953046 -28 41 C-28.12361526 36.49774209 -28.21434063 31.99647151 -28.2746582 27.49291992 C-28.29980078 25.96116939 -28.33392047 24.42953883 -28.37719727 22.89819336 C-28.43786942 20.69615116 -28.46620891 18.49569426 -28.48828125 16.29296875 C-28.51408768 15.60849167 -28.5398941 14.92401459 -28.56648254 14.21879578 C-28.56762695 12.27807617 -28.56762695 12.27807617 -28 9 C-25.71923828 7.17626953 -25.71923828 7.17626953 -23 6 C-22.32912354 5.63479248 -21.65824707 5.26958496 -20.96704102 4.89331055 C-18.84213204 3.80376948 -16.70463635 2.74274875 -14.5625 1.6875 C-13.82451172 1.30271484 -13.08652344 0.91792969 -12.32617188 0.52148438 C-7.46404584 -1.85123313 -5.08678379 -2.47339028 0 0 Z " fill="#030303" transform="translate(43,75)"/>
<path d="M0 0 C1.98 0.66 3.96 1.32 6 2 C5.54663921 6.87362847 4.2910841 9.39042389 1 13 C1.495 13.99 1.495 13.99 2 15 C2.66 15 3.32 15 4 15 C4.4375 17.625 4.4375 17.625 4 21 C0.88430802 24.74939204 -3.22850173 27.83936528 -8 29 C-10.3125 28.625 -10.3125 28.625 -12 28 C-11.67 26.35 -11.34 24.7 -11 23 C-12.051875 23.680625 -12.051875 23.680625 -13.125 24.375 C-16.02984591 26.01686943 -18.8139348 27.03677099 -22 28 C-22.99 27.01 -23.98 26.02 -25 25 C-25.66 25.66 -26.32 26.32 -27 27 C-30.125 26.625 -30.125 26.625 -33 26 C-33.495 24.515 -33.495 24.515 -34 23 C-34.5775 23.639375 -35.155 24.27875 -35.75 24.9375 C-37.99164059 26.99233721 -39.00370457 27.80669062 -42 28 C-45 26 -45 26 -46 23 C-47.50539661 23.94983358 -49.00420347 24.91011891 -50.5 25.875 C-51.75296875 26.67550781 -51.75296875 26.67550781 -53.03125 27.4921875 C-53.6809375 27.98976563 -54.330625 28.48734375 -55 29 C-55 29.66 -55 30.32 -55 31 C-45.6268479 32.57863614 -37.44615206 33.42583427 -28 32 C-26.68 32 -25.36 32 -24 32 C-22.875 36.75 -22.875 36.75 -24 39 C-26.64 39 -29.28 39 -32 39 C-32 38.01 -32 37.02 -32 36 C-32.66 36 -33.32 36 -34 36 C-34 36.66 -34 37.32 -34 38 C-34.84304687 37.98839844 -35.68609375 37.97679687 -36.5546875 37.96484375 C-37.65039062 37.95582031 -38.74609375 37.94679687 -39.875 37.9375 C-40.96554688 37.92589844 -42.05609375 37.91429687 -43.1796875 37.90234375 C-45.95177546 37.80255697 -45.95177546 37.80255697 -48 39 C-48 37.68 -48 36.36 -48 35 C-48.66 35 -49.32 35 -50 35 C-50 35.66 -50 36.32 -50 37 C-51.65 37.66 -53.3 38.32 -55 39 C-55 38.34 -55 37.68 -55 37 C-55.66 37 -56.32 37 -57 37 C-57.495 36.505 -57.495 36.505 -58 36 C-58.82757813 36.49113281 -58.82757813 36.49113281 -59.671875 36.9921875 C-62.38780923 38.16787715 -64.30551759 38.20248638 -67.25 38.125 C-68.58804688 38.09792969 -68.58804688 38.09792969 -69.953125 38.0703125 C-70.62859375 38.04710937 -71.3040625 38.02390625 -72 38 C-72.66 35.36 -73.32 32.72 -74 30 C-70.04 29.505 -70.04 29.505 -66 29 C-66.66 28.505 -67.32 28.01 -68 27.5 C-70.2984947 24.62688162 -70.58056898 22.7355755 -70.390625 19.0859375 C-69.72702996 15.54234 -68.0606673 12.90917736 -66 10 C-65.401875 9.113125 -64.80375 8.22625 -64.1875 7.3125 C-60.9170149 3.85513004 -57.57763942 1.37755659 -52.83984375 0.68359375 C-50.6875 0.625 -50.6875 0.625 -47 1 C-45 3 -45 3 -45 5.8125 C-46.33949501 10.08214035 -48.36232997 11.48161305 -52 14 C-55.01435688 15.47212778 -56.63630588 16 -60 16 C-59.67 15.01 -59.34 14.02 -59 13 C-56.68020619 11.96898053 -54.34570085 10.97063483 -52 10 C-49.32329046 7.94785602 -48.5699503 6.30571174 -48 3 C-55.21854861 5.5565693 -60.77746247 9.59673941 -65 16.0625 C-66.07652411 19.22478957 -66.23696414 21.682502 -66 25 C-59.57749232 26.67543679 -54.76066442 25.24366479 -49 22 C-48.34 21.01 -47.68 20.02 -47 19 C-46.34 19 -45.68 19 -45 19 C-43.35 15.37 -41.7 11.74 -40 8 C-39.34 8 -38.68 8 -38 8 C-37.731875 7.21625 -37.46375 6.4325 -37.1875 5.625 C-36 3 -36 3 -33 1 C-30.3125 0.875 -30.3125 0.875 -28 1 C-27.27734375 2.66015625 -27.27734375 2.66015625 -27 5 C-30.51208473 11.38647387 -35.21967578 16.62951095 -41 21 C-41.33 21.66 -41.66 22.32 -42 23 C-36.94489444 22.55396127 -34.59833262 20.35299176 -31 17 C-30.67 16.34 -30.34 15.68 -30 15 C-28.02 15 -26.04 15 -24 15 C-24.66 15.33 -25.32 15.66 -26 16 C-26.65213292 18.02463255 -26.65213292 18.02463255 -27 20 C-27.66 20 -28.32 20 -29 20 C-29.495 22.475 -29.495 22.475 -30 25 C-25.76300302 22.09463064 -23.6162821 19.03262614 -21.2109375 14.609375 C-20.81132812 14.07828125 -20.41171875 13.5471875 -20 13 C-19.01 13 -18.02 13 -17 13 C-16.75957724 17.08718695 -17.57741188 20.17679443 -19 24 C-18.05125 23.175 -17.1025 22.35 -16.125 21.5 C-13.25 19 -13.25 19 -11 19 C-10.66226563 18.21753906 -10.32453125 17.43507813 -9.9765625 16.62890625 C-9.30753906 15.11103516 -9.30753906 15.11103516 -8.625 13.5625 C-7.96371094 12.04849609 -7.96371094 12.04849609 -7.2890625 10.50390625 C-6 8 -6 8 -4 7 C-3.27840576 5.35636866 -2.60648579 3.68949614 -2 2 C-1.34 2 -0.68 2 0 2 C0 1.34 0 0.68 0 0 Z M-31 3 C-31.33 3.66 -31.66 4.32 -32 5 C-31.34 5 -30.68 5 -30 5 C-30.33 4.34 -30.66 3.68 -31 3 Z M3 3 C1.515 4.98 1.515 4.98 0 7 C1.32 6.34 2.64 5.68 4 5 C3.67 4.34 3.34 3.68 3 3 Z M-33 5 C-35.475 8.465 -35.475 8.465 -38 12 C-37.67 12.66 -37.34 13.32 -37 14 C-35.02 11.36 -33.04 8.72 -31 6 C-31.66 5.67 -32.32 5.34 -33 5 Z M-2 8 C-2.66 9.32 -3.32 10.64 -4 12 C-2.68 11.34 -1.36 10.68 0 10 C0 9.34 0 8.68 0 8 C-0.66 8 -1.32 8 -2 8 Z M-1 16 C-2.80693756 17.78612311 -2.80693756 17.78612311 -4.625 20 C-5.25664062 20.7425 -5.88828125 21.485 -6.5390625 22.25 C-7.26222656 23.11625 -7.26222656 23.11625 -8 24 C-7.67 24.66 -7.34 25.32 -7 26 C-3.27549784 23.89484661 -1.3204079 22.75732776 0.375 18.75 C0.58125 17.8425 0.7875 16.935 1 16 C0.34 16 -0.32 16 -1 16 Z M-64 29 C-64 29.99 -64 30.98 -64 32 C-63.34 31.67 -62.68 31.34 -62 31 C-62 30.34 -62 29.68 -62 29 C-62.66 29 -63.32 29 -64 29 Z M-61 29 C-61 29.66 -61 30.32 -61 31 C-59.68 30.67 -58.36 30.34 -57 30 C-58.32 29.67 -59.64 29.34 -61 29 Z M-69 32 C-68.67 32.99 -68.34 33.98 -68 35 C-67.34 35 -66.68 35 -66 35 C-66 34.01 -66 33.02 -66 32 C-66.99 32 -67.98 32 -69 32 Z M-63 32 C-62 34 -62 34 -62 34 Z M-70 35 C-70 35.66 -70 36.32 -70 37 C-69.34 36.67 -68.68 36.34 -68 36 C-68.66 35.67 -69.32 35.34 -70 35 Z " fill="#080707" transform="translate(193,77)"/>
<path d="M0 0 C3.5 0.25 3.5 0.25 5.5 2.25 C5.125 4.375 5.125 4.375 4.5 6.25 C6.89542737 7.75823205 8.08545931 8.30314624 10.9375 7.9375 C12.65115765 7.47773819 14.35967498 6.99838781 16.0625 6.5 C18.5 6.25 18.5 6.25 20.8125 7.6875 C21.369375 8.203125 21.92625 8.71875 22.5 9.25 C20.52 9.91 18.54 10.57 16.5 11.25 C16.5 11.58 16.5 11.91 16.5 12.25 C16.5 15.25 16.5 18.25 16.5 21.25 C13.86 20.59 11.22 19.93 8.5 19.25 C8.01769764 22.69980157 7.7885808 25.8236796 8.5 29.25 C10.86456436 31.60937891 13.44127906 32.9527746 16.5 34.25 C16.17 36.56 15.84 38.87 15.5 41.25 C11.98431326 42.42189558 11.5008148 42.08725505 8.26953125 40.59765625 C7.06586914 40.05141602 7.06586914 40.05141602 5.83789062 39.49414062 C5.00451172 39.10419922 4.17113281 38.71425781 3.3125 38.3125 C2.46751953 37.92642578 1.62253906 37.54035156 0.75195312 37.14257812 C-1.33617735 36.18699299 -3.41973604 35.22256217 -5.5 34.25 C-5.549377 29.72934572 -5.58570823 25.20884783 -5.60986328 20.68798828 C-5.61993118 19.14954902 -5.63358646 17.61112893 -5.65087891 16.07275391 C-5.67509317 13.86355867 -5.68647491 11.65461605 -5.6953125 9.4453125 C-5.70563507 8.75567413 -5.71595764 8.06603577 -5.72659302 7.35549927 C-5.72699478 5.65199094 -5.62191026 3.94914057 -5.5 2.25 C-3.5 0.25 -3.5 0.25 0 0 Z " fill="#050505" transform="translate(20.5,81.75)"/>
<path d="M0 0 C0.495 1.98 0.495 1.98 1 4 C-6.425 5.485 -6.425 5.485 -14 7 C-14.66 8.98 -15.32 10.96 -16 13 C-15.01 12.67 -14.02 12.34 -13 12 C-12.34 13.32 -11.68 14.64 -11 16 C-13.31 16.33 -15.62 16.66 -18 17 C-18.33 19.97 -18.66 22.94 -19 26 C-16.02934491 25.65772428 -16.02934491 25.65772428 -13 25 C-12.67 24.34 -12.34 23.68 -12 23 C-11.01 23.33 -10.02 23.66 -9 24 C-9 23.34 -9 22.68 -9 22 C-10.65 21.34 -12.3 20.68 -14 20 C-14 19.67 -14 19.34 -14 19 C-12.00045254 18.95745644 -9.99958364 18.95919217 -8 19 C-7 20 -7 20 -6.6875 22.375 C-7 25 -7 25 -8.5 26.6875 C-11.89975903 28.47237349 -15.15791531 29.65358253 -19 30 C-21.5 29.125 -21.5 29.125 -23 27 C-23.32485708 24.24412912 -23.18321142 21.79397415 -23 19 C-24.65 19 -26.3 19 -28 19 C-26.71034824 17.62437146 -25.37310707 16.29233607 -24 15 C-23.34 15 -22.68 15 -22 15 C-22.33 12.69 -22.66 10.38 -23 8 C-23.5775 8.20625 -24.155 8.4125 -24.75 8.625 C-27 9 -27 9 -29.1875 8.3125 C-31 7 -31 7 -31.875 5 C-31.91625 4.34 -31.9575 3.68 -32 3 C-31.34 2.34 -30.68 1.68 -30 1 C-25.44444444 1.55555556 -25.44444444 1.55555556 -24 3 C-19.85035613 2.8864308 -15.91182454 2.32293786 -12 0.9375 C-7.96054486 -0.32482973 -4.19705737 -0.16788229 0 0 Z M-21 8 C-20.34 8.66 -19.68 9.32 -19 10 C-19 9.34 -19 8.68 -19 8 C-19.66 8 -20.32 8 -21 8 Z " fill="#040404" transform="translate(95,80)"/>
<path d="M0 0 C0.84304687 0.35320312 1.68609375 0.70640625 2.5546875 1.0703125 C3.32039063 1.41835937 4.08609375 1.76640625 4.875 2.125 C5.65617187 2.47820312 6.43734375 2.83140625 7.2421875 3.1953125 C7.82226562 3.46085937 8.40234375 3.72640625 9 4 C9 4.99 9 5.98 9 7 C7.02 7.99 7.02 7.99 5 9 C7.31 9.66 9.62 10.32 12 11 C8.58660308 14.14032517 5.60167853 14.83266624 1 15 C-0.75 13.5625 -0.75 13.5625 -2 12 C-2.99 12 -3.98 12 -5 12 C-7.01151741 11.36893571 -9.01363702 10.70626239 -11 10 C-8.44931155 7.64551835 -7.28982642 7.01672076 -3.75 6.8125 C-2.8425 6.874375 -1.935 6.93625 -1 7 C-1 6.01 -1 5.02 -1 4 C-4.29075996 4.37904208 -4.29075996 4.37904208 -7 6 C-9 7 -11 8 -13 9 C-13.33 9.33 -13.66 9.66 -14 10 C-12.68 10.33 -11.36 10.66 -10 11 C-10.33 12.65 -10.66 14.3 -11 16 C-14.82097239 15.46930939 -17.06171403 14.50298434 -20 12 C-19.34 12 -18.68 12 -18 12 C-18.33 10.68 -18.66 9.36 -19 8 C-20.32 8 -21.64 8 -23 8 C-23 7.34 -23 6.68 -23 6 C-20.30216785 4.60001138 -17.59505067 3.23055157 -14.875 1.875 C-14.11445313 1.47667969 -13.35390625 1.07835938 -12.5703125 0.66796875 C-7.66923858 -1.74031757 -5.14734975 -2.57367487 0 0 Z " fill="#0A0A0A" transform="translate(43,75)"/>
<path d="M0 0 C0.33 0.99 0.66 1.98 1 3 C2.65 2.67 4.3 2.34 6 2 C6.33 3.32 6.66 4.64 7 6 C5.88625 5.95875 4.7725 5.9175 3.625 5.875 C-0.04366025 5.58878141 -0.04366025 5.58878141 -2 8 C1.32534757 9.10844919 3.62182575 8.84454356 7 8 C6.67 9.32 6.34 10.64 6 12 C7.32 12.66 8.64 13.32 10 14 C4.25 17 4.25 17 2 17 C2 26.9 2 36.8 2 47 C1.67 47 1.34 47 1 47 C1 45.7625 1 44.525 1 43.25 C0.84124543 41.032274 0.84124543 41.032274 0 39 C-2.56958058 37.02256378 -4.92326185 36.17209072 -8 35 C-8 31.04 -8 27.08 -8 23 C-5.03 23.99 -2.06 24.98 1 26 C0.87625 24.55625 0.7525 23.1125 0.625 21.625 C0.55539063 20.81289062 0.48578125 20.00078125 0.4140625 19.1640625 C0.17107412 16.79665809 0.17107412 16.79665809 -2 15 C1.465 14.505 1.465 14.505 5 14 C4.34 13.34 3.68 12.68 3 12 C-0.59679066 12.32326553 -0.59679066 12.32326553 -4 13 C-3.67 11.68 -3.34 10.36 -3 9 C-4.98 9 -6.96 9 -9 9 C-9 8.01 -9 7.02 -9 6 C-8.05125 5.855625 -7.1025 5.71125 -6.125 5.5625 C-3.1065506 5.17064601 -3.1065506 5.17064601 -1 4 C-1.33 3.34 -1.66 2.68 -2 2 C-1.34 2 -0.68 2 0 2 C0 1.34 0 0.68 0 0 Z " fill="#6C6C6C" transform="translate(36,77)"/>
<path d="M0 0 C2 2 2 2 2 4.8125 C0.66050499 9.08214035 -1.36232997 10.48161305 -5 13 C-8.01435688 14.47212778 -9.63630588 15 -13 15 C-12.67 14.01 -12.34 13.02 -12 12 C-9.68020619 10.96898053 -7.34570085 9.97063483 -5 9 C-2.32329046 6.94785602 -1.5699503 5.30571174 -1 2 C-8.21854861 4.5565693 -13.77746247 8.59673941 -18 15.0625 C-19.07652411 18.22478957 -19.23696414 20.682502 -19 24 C-18.34 24.33 -17.68 24.66 -17 25 C-17.33 26.32 -17.66 27.64 -18 29 C-21.57754479 26.13796417 -22.89306358 24.73667311 -23.5625 20.125 C-23.26914844 15.67443774 -21.53785081 12.5828482 -19 9 C-18.401875 8.113125 -17.80375 7.22625 -17.1875 6.3125 C-11.92760368 0.75203818 -7.4213799 -0.7547166 0 0 Z " fill="#040404" transform="translate(146,78)"/>
<path d="M0 0 C0 3.3 0 6.6 0 10 C-2.47810316 11.16897285 -4.95740119 12.33527544 -7.4375 13.5 C-8.14455078 13.83386719 -8.85160156 14.16773437 -9.58007812 14.51171875 C-14.88671875 17 -14.88671875 17 -16 17 C-16 13.37 -16 9.74 -16 6 C-13.89915791 4.99303432 -11.79420511 3.9946411 -9.6875 3 C-8.51574219 2.443125 -7.34398437 1.88625 -6.13671875 1.3125 C-3 0 -3 0 0 0 Z " fill="#6A6A6A" transform="translate(61,95)"/>
<path d="M0 0 C1.32 1.32 2.64 2.64 4 4 C3.67 4.99 3.34 5.98 3 7 C2.08476563 7.13277344 1.16953125 7.26554687 0.2265625 7.40234375 C-0.96195313 7.57894531 -2.15046875 7.75554687 -3.375 7.9375 C-4.55835937 8.11152344 -5.74171875 8.28554687 -6.9609375 8.46484375 C-9.90702381 8.83462786 -9.90702381 8.83462786 -12 10 C-13.99883869 10.34022786 -15.99890722 10.67329097 -18 11 C-18.99 11.33 -19.98 11.66 -21 12 C-21.96392528 9.00112135 -22.35886391 6.91185125 -21 4 C-18.6875 2.625 -18.6875 2.625 -16 2 C-13.6875 2.875 -13.6875 2.875 -12 4 C-12 3.34 -12 2.68 -12 2 C-11.01 2.33 -10.02 2.66 -9 3 C-6.94603274 2.59070014 -6.94603274 2.59070014 -5 2 C-4.34 2 -3.68 2 -3 2 C-2.01 1.34 -1.02 0.68 0 0 Z M-18 3 C-17 5 -17 5 -17 5 Z " fill="#252021" transform="translate(96,108)"/>
<path d="M0 0 C2.64 0.99 5.28 1.98 8 3 C8 3.99 8 4.98 8 6 C6.02 6.99 6.02 6.99 4 8 C6.31 8.66 8.62 9.32 11 10 C7.58660308 13.14032517 4.60167853 13.83266624 0 14 C-1.75 12.5625 -1.75 12.5625 -3 11 C-3.99 11 -4.98 11 -6 11 C-8.01151741 10.36893571 -10.01363702 9.70626239 -12 9 C-9.44931155 6.64551835 -8.28982642 6.01672076 -4.75 5.8125 C-3.38875 5.9053125 -3.38875 5.9053125 -2 6 C-2 4.68 -2 3.36 -2 2 C-1.34 2 -0.68 2 0 2 C0 1.34 0 0.68 0 0 Z " fill="#343434" transform="translate(44,76)"/>
<path d="M0 0 C0.66 0.33 1.32 0.66 2 1 C0.6875 2.5 0.6875 2.5 -1 4 C-1.99 4 -2.98 4 -4 4 C-3.34 5.32 -2.68 6.64 -2 8 C-3.98 8.33 -5.96 8.66 -8 9 C-8 8.34 -8 7.68 -8 7 C-8.66 7 -9.32 7 -10 7 C-10.33 7.99 -10.66 8.98 -11 10 C-11.99 10 -12.98 10 -14 10 C-14.66 10.66 -15.32 11.32 -16 12 C-18.72869407 11.96712417 -21.2966618 11.43602229 -24 11 C-23.67 10.01 -23.34 9.02 -23 8 C-22.67 8.66 -22.34 9.32 -22 10 C-21.34 9.67 -20.68 9.34 -20 9 C-20.33 8.34 -20.66 7.68 -21 7 C-19.71937515 5.2925002 -18.38232443 3.62626404 -17 2 C-16.34 2 -15.68 2 -15 2 C-15 2.99 -15 3.98 -15 5 C-14.34 5 -13.68 5 -13 5 C-13 4.34 -13 3.68 -13 3 C-12.31292969 2.95101562 -11.62585938 2.90203125 -10.91796875 2.8515625 C-9.56638672 2.73941406 -9.56638672 2.73941406 -8.1875 2.625 C-7.29417969 2.55539063 -6.40085938 2.48578125 -5.48046875 2.4140625 C-2.75601501 2.13354964 -2.75601501 2.13354964 0 0 Z M-18 5 C-18.33 5.99 -18.66 6.98 -19 8 C-18.01 7.67 -17.02 7.34 -16 7 C-16.66 6.34 -17.32 5.68 -18 5 Z " fill="#070405" transform="translate(196,105)"/>
<path d="M0 0 C0.33 0.99 0.66 1.98 1 3 C2.65 2.67 4.3 2.34 6 2 C6.33 3.32 6.66 4.64 7 6 C5.88625 5.95875 4.7725 5.9175 3.625 5.875 C-0.04366025 5.58878141 -0.04366025 5.58878141 -2 8 C1.32534757 9.10844919 3.62182575 8.84454356 7 8 C6.67 9.32 6.34 10.64 6 12 C7.32 12.66 8.64 13.32 10 14 C4.25 17 4.25 17 2 17 C2 20.3 2 23.6 2 27 C1.34 26.67 0.68 26.34 0 26 C0.02320313 25.37351562 0.04640625 24.74703125 0.0703125 24.1015625 C0.08835937 23.28429687 0.10640625 22.46703125 0.125 21.625 C0.14820313 20.81289062 0.17140625 20.00078125 0.1953125 19.1640625 C0.21370051 16.78657757 0.21370051 16.78657757 -2 15 C1.465 14.505 1.465 14.505 5 14 C4.34 13.34 3.68 12.68 3 12 C-0.59679066 12.32326553 -0.59679066 12.32326553 -4 13 C-3.67 11.68 -3.34 10.36 -3 9 C-4.98 9 -6.96 9 -9 9 C-9 8.01 -9 7.02 -9 6 C-8.05125 5.855625 -7.1025 5.71125 -6.125 5.5625 C-3.1065506 5.17064601 -3.1065506 5.17064601 -1 4 C-1.33 3.34 -1.66 2.68 -2 2 C-1.34 2 -0.68 2 0 2 C0 1.34 0 0.68 0 0 Z " fill="#6C6C6C" transform="translate(36,77)"/>
<path d="M0 0 C0.99 -0.33 1.98 -0.66 3 -1 C4.125 3.75 4.125 3.75 3 6 C0.36 6 -2.28 6 -5 6 C-5 5.01 -5 4.02 -5 3 C-5.66 3 -6.32 3 -7 3 C-7 3.66 -7 4.32 -7 5 C-9.31 5 -11.62 5 -14 5 C-14.33 4.34 -14.66 3.68 -15 3 C-14.01 3 -13.02 3 -12 3 C-12.66 2.67 -13.32 2.34 -14 2 C-14 1.34 -14 0.68 -14 0 C-9.05298604 -0.70055753 -4.9138601 -1.15620238 0 0 Z " fill="#100A0C" transform="translate(166,110)"/>
<path d="M0 0 C4.62 0 9.24 0 14 0 C14 0.66 14 1.32 14 2 C13.34 2 12.68 2 12 2 C11.67 2.99 11.34 3.98 11 5 C8.69 5 6.38 5 4 5 C3.67 5.99 3.34 6.98 3 8 C1.35 8 -0.3 8 -2 8 C-1.34 5.36 -0.68 2.72 0 0 Z " fill="#100C0D" transform="translate(102,109)"/>
<path d="M0 0 C0.33 0.66 0.66 1.32 1 2 C4.3 2 7.6 2 11 2 C11 2.99 11 3.98 11 5 C7.72072672 6.89188843 4.72314561 7.44548895 1 8 C0.01 8.33 -0.98 8.66 -2 9 C-2.97110486 5.97878489 -3.13617383 3.99536737 -2 1 C-1.34 0.67 -0.68 0.34 0 0 Z " fill="#252223" transform="translate(77,111)"/>
<path d="M0 0 C3.375 0.75 3.375 0.75 7 2 C8.2265625 4.078125 8.2265625 4.078125 9 6 C7.22992286 6.08114106 5.45877902 6.13925505 3.6875 6.1875 C2.70136719 6.22230469 1.71523438 6.25710937 0.69921875 6.29296875 C-2 6 -2 6 -3.85546875 4.48828125 C-4.23316406 3.99714844 -4.61085937 3.50601563 -5 3 C-3.35 2.67 -1.7 2.34 0 2 C0 1.34 0 0.68 0 0 Z " fill="#0B0B0B" transform="translate(52,80)"/>
<path d="M0 0 C2.31 0.33 4.62 0.66 7 1 C7 1.66 7 2.32 7 3 C8.98 3.66 10.96 4.32 13 5 C12.67 6.65 12.34 8.3 12 10 C8.17902761 9.46930939 5.93828597 8.50298434 3 6 C3.66 6 4.32 6 5 6 C4.67 4.68 4.34 3.36 4 2 C2.68 2 1.36 2 0 2 C0 1.34 0 0.68 0 0 Z " fill="#414141" transform="translate(20,81)"/>
<path d="M0 0 C2.64 0.99 5.28 1.98 8 3 C8 3.99 8 4.98 8 6 C5.04335481 7.4783226 2.25770263 7.06032783 -1 7 C-1.33 5.35 -1.66 3.7 -2 2 C-1.34 2 -0.68 2 0 2 C0 1.34 0 0.68 0 0 Z " fill="#191919" transform="translate(44,76)"/>
<path d="M0 0 C1.21236328 0.02707031 1.21236328 0.02707031 2.44921875 0.0546875 C3.37154297 0.08949219 3.37154297 0.08949219 4.3125 0.125 C4.3125 0.785 4.3125 1.445 4.3125 2.125 C5.3025 1.795 6.2925 1.465 7.3125 1.125 C7.3125 1.785 7.3125 2.445 7.3125 3.125 C6.3225 3.125 5.3325 3.125 4.3125 3.125 C4.3125 3.785 4.3125 4.445 4.3125 5.125 C2.3325 5.455 0.3525 5.785 -1.6875 6.125 C-1.6875 4.805 -1.6875 3.485 -1.6875 2.125 C-2.3475 2.125 -3.0075 2.125 -3.6875 2.125 C-3.6875 2.785 -3.6875 3.445 -3.6875 4.125 C-5.0075 4.125 -6.3275 4.125 -7.6875 4.125 C-7.6875 3.465 -7.6875 2.805 -7.6875 2.125 C-4.48369983 -0.01086678 -3.66810033 -0.10632175 0 0 Z " fill="#1A1416" transform="translate(146.6875,109.875)"/>
<path d="M0 0 C0.928125 0.433125 1.85625 0.86625 2.8125 1.3125 C3.1425 2.3025 3.4725 3.2925 3.8125 4.3125 C1.05325815 6.11661967 -0.07722103 6.3252245 -3.4375 5.9375 C-4.345 5.73125 -5.2525 5.525 -6.1875 5.3125 C-6.5175 3.9925 -6.8475 2.6725 -7.1875 1.3125 C-4.38629123 -0.62679838 -3.41465603 -0.73649444 0 0 Z " fill="#030303" transform="translate(40.1875,73.6875)"/>
<path d="M0 0 C3.5625 0.1875 3.5625 0.1875 5.5625 2.1875 C5.2325 3.1775 4.9025 4.1675 4.5625 5.1875 C3.469375 5.166875 2.37625 5.14625 1.25 5.125 C-2.38134191 5.00205548 -2.38134191 5.00205548 -5.4375 6.1875 C-4.36970339 0.23834746 -4.36970339 0.23834746 0 0 Z " fill="#050505" transform="translate(20.4375,81.8125)"/>
<path d="M0 0 C0.99 0.33 1.98 0.66 3 1 C2.67 1.99 2.34 2.98 2 4 C3.32 4.66 4.64 5.32 6 6 C0.25 9 0.25 9 -2 9 C-2 12.3 -2 15.6 -2 19 C-2.66 18.67 -3.32 18.34 -4 18 C-3.96519531 17.06027344 -3.96519531 17.06027344 -3.9296875 16.1015625 C-3.91164062 15.28429687 -3.89359375 14.46703125 -3.875 13.625 C-3.85179687 12.81289062 -3.82859375 12.00078125 -3.8046875 11.1640625 C-3.78629949 8.78657757 -3.78629949 8.78657757 -6 7 C-2.535 6.505 -2.535 6.505 1 6 C0.649375 5.38125 0.29875 4.7625 -0.0625 4.125 C-0.371875 3.42375 -0.68125 2.7225 -1 2 C-0.67 1.34 -0.34 0.68 0 0 Z " fill="#595959" transform="translate(40,85)"/>
<path d="M0 0 C0.66 0.66 1.32 1.32 2 2 C-2.12168689 3.62950412 -4.70700357 4.26264601 -9 3 C-9 2.34 -9 1.68 -9 1 C-5.66429909 -1.10025613 -3.74952434 -1.18406032 0 0 Z " fill="#0E0E0E" transform="translate(41,89)"/>
<path d="M0 0 C0 0.66 0 1.32 0 2 C-5.29230769 4.21538462 -5.29230769 4.21538462 -8.875 3.125 C-9.57625 2.75375 -10.2775 2.3825 -11 2 C-7.374967 -1.625033 -4.81746234 -1.01907857 0 0 Z " fill="#090909" transform="translate(43,83)"/>
<path d="M0 0 C0 0.99 0 1.98 0 3 C-2.57213134 4.61949011 -3.67669159 5.04408751 -6.75 4.625 C-7.4925 4.41875 -8.235 4.2125 -9 4 C-9 3.34 -9 2.68 -9 2 C-5.86501708 0.14223235 -3.62528568 -0.20140476 0 0 Z " fill="#383234" transform="translate(88,113)"/>
<path d="M0 0 C3.3 0 6.6 0 10 0 C9.67 0.99 9.34 1.98 9 3 C6.03 3 3.06 3 0 3 C0 2.01 0 1.02 0 0 Z " fill="#010101" transform="translate(99,94)"/>
<path d="M0 0 C0.66 0 1.32 0 2 0 C2.33 0.66 2.66 1.32 3 2 C3.66 2.33 4.32 2.66 5 3 C4.01 4.32 3.02 5.64 2 7 C0.35 6.67 -1.3 6.34 -3 6 C-2.67 5.01 -2.34 4.02 -2 3 C-1.34 3 -0.68 3 0 3 C0 2.01 0 1.02 0 0 Z " fill="#0F0B0C" transform="translate(183,108)"/>
<path d="M0 0 C0.33 0.99 0.66 1.98 1 3 C2.65 2.67 4.3 2.34 6 2 C6.33 3.32 6.66 4.64 7 6 C5.906875 5.979375 4.81375 5.95875 3.6875 5.9375 C0.05615809 5.81455548 0.05615809 5.81455548 -3 7 C-3 6.34 -3 5.68 -3 5 C-2.34 4.67 -1.68 4.34 -1 4 C-1.33 3.34 -1.66 2.68 -2 2 C-1.34 2 -0.68 2 0 2 C0 1.34 0 0.68 0 0 Z " fill="#606060" transform="translate(36,77)"/>
<path d="M0 0 C1.32 1.32 2.64 2.64 4 4 C3.01 5.485 3.01 5.485 2 7 C-0.475 6.01 -0.475 6.01 -3 5 C-2.625 3.0625 -2.625 3.0625 -2 1 C-1.34 0.67 -0.68 0.34 0 0 Z " fill="#140D0F" transform="translate(96,108)"/>
<path d="M0 0 C0.66 0 1.32 0 2 0 C3.125 4.75 3.125 4.75 2 7 C-0.31 6.67 -2.62 6.34 -5 6 C-4.360625 5.7525 -3.72125 5.505 -3.0625 5.25 C-0.81258459 4.18437567 -0.81258459 4.18437567 -0.25 1.875 C-0.1675 1.25625 -0.085 0.6375 0 0 Z " fill="#070405" transform="translate(167,109)"/>
<path d="M0 0 C1.32 0.66 2.64 1.32 4 2 C3.01 3.485 3.01 3.485 2 5 C-0.625 5.1875 -0.625 5.1875 -3 5 C-1.125 1.125 -1.125 1.125 0 0 Z " fill="#1D191B" transform="translate(103,112)"/>
<path d="M0 0 C1.98 0 3.96 0 6 0 C5.67 1.32 5.34 2.64 5 4 C2.525 3.01 2.525 3.01 0 2 C0 1.34 0 0.68 0 0 Z " fill="#060606" transform="translate(27,86)"/>
<path d="M0 0 C5.75 0.75 5.75 0.75 8 3 C5.36 3.33 2.72 3.66 0 4 C0 2.68 0 1.36 0 0 Z " fill="#212121" transform="translate(15,84)"/>
<path d="" fill="#000000" transform="translate(0,0)"/>
<path d="" fill="#242424" transform="translate(0,0)"/>
<path d="" fill="#000000" transform="translate(0,0)"/>
<path d="" fill="#000000" transform="translate(0,0)"/>
<path d="" fill="#000000" transform="translate(0,0)"/>
<path d="" fill="#000000" transform="translate(0,0)"/>
<path d="" fill="#000000" transform="translate(0,0)"/>
<path d="" fill="#000000" transform="translate(0,0)"/>
<path d="" fill="#000000" transform="translate(0,0)"/>
<path d="" fill="#000000" transform="translate(0,0)"/>
<path d="" fill="#000000" transform="translate(0,0)"/>
<path d="" fill="#000000" transform="translate(0,0)"/>
<path d="" fill="#000000" transform="translate(0,0)"/>
<path d="" fill="#000000" transform="translate(0,0)"/>
<path d="" fill="#000000" transform="translate(0,0)"/>
<path d="" fill="#000000" transform="translate(0,0)"/>
<path d="" fill="#000000" transform="translate(0,0)"/>
<path d="" fill="#000000" transform="translate(0,0)"/>
<path d="" fill="#000000" transform="translate(0,0)"/>
<path d="" fill="#000000" transform="translate(0,0)"/>
<path d="" fill="#000000" transform="translate(0,0)"/>
<path d="" fill="#000000" transform="translate(0,0)"/>
</svg>
